<?xml version="1.0" encoding="UTF-8"?>
<svg id="Laag_1" data-name="Laag 1" xmlns="http://www.w3.org/2000/svg" viewBox="0 0 478.19 108.15">
  <defs>
    <style>
      .cls-1 {
        fill: #1d1e1c;
      }

      .cls-2 {
        fill: #ae1c1e;
      }

      .cls-3 {
        fill: #fff;
      }

      .cls-4 {
        fill: #227139;
      }
    </style>
  </defs>
  <rect class="cls-4" x="54.49" y="36.21" width="10.95" height="9.06"/>
  <rect class="cls-2" x="63.55" y="45.15" width="35.84" height="40.68"/>
  <rect class="cls-3" x="54.49" y="80.99" width="9.06" height="9.06"/>
  <rect x="54.49" y="45.15" width="9.06" height="9.06"/>
  <rect x="63.56" y="36.21" width="9.66" height="9.06"/>
  <rect x="54.49" y="72.14" width="9.06" height="9.06" transform="translate(-17.65 135.69) rotate(-90)"/>
  <rect x="54.49" y="63.07" width="9.06" height="9.06" transform="translate(-8.59 126.62) rotate(-90)"/>
  <rect x="54.49" y="54.22" width="9.06" height="9.06" transform="translate(.27 117.77) rotate(-90)"/>
  <rect x="63.56" y="80.99" width="9.06" height="9.06"/>
  <rect class="cls-3" x="79.92" y="73.91" width="8.78" height="4.68"/>
  <rect class="cls-3" x="86.94" y="67.96" width="4.68" height="4.68"/>
  <rect x="99.39" y="45.15" width="9.06" height="9.06"/>
  <rect x="89.11" y="61.86" width="29.62" height="9.06" transform="translate(37.53 170.31) rotate(-90)"/>
  <rect x="70.69" y="36.21" width="28.77" height="9.06"/>
  <rect x="72.1" y="80.99" width="27.35" height="9.06"/>
  <rect class="cls-4" x="27.19" y="43.55" width="9.06" height="10.62"/>
  <rect class="cls-4" x="45.41" y="27.15" width="9.06" height="9.06"/>
  <rect class="cls-4" x="36.35" y="18.08" width="9.06" height="9.06"/>
  <rect class="cls-4" x="25.2" y="36.05" width="11.06" height="9.06"/>
  <rect class="cls-4" x="13.6" y="26.98" width="13.6" height="9.06"/>
  <rect class="cls-4" x="27.28" y="9.02" width="9.06" height="9.06"/>
  <rect class="cls-4" x="9.06" y="26.98" width="9.06" height="9.06"/>
  <rect class="cls-4" y="4.53" width="14.54" height="22.45"/>
  <rect class="cls-4" x="14.54" y="9.02" width="12.89" height="9.06"/>
  <rect class="cls-4" x="9.06" y="2.74" width="9.06" height="24.24"/>
  <rect class="cls-4" x="5.59" y="8.9" width="12.54" height="9.06"/>
  <rect class="cls-4" y="8.9" width="9.06" height="9.06"/>
  <rect class="cls-4" width="9.06" height="9.06"/>
  <rect class="cls-4" x="5.59" width="12.54" height="9.06"/>
  <rect class="cls-4" x="18.13" y="36.05" width="9.06" height="9.06"/>
  <rect class="cls-2" x="27.19" y="63.24" width="35.84" height="40.68"/>
  <rect x="18.13" y="63.24" width="9.06" height="9.06"/>
  <rect x="27.2" y="54.18" width="9.66" height="9.06"/>
  <rect x="7.71" y="79.8" width="29.91" height="9.06" transform="translate(-61.68 107) rotate(-90)"/>
  <rect x="27.2" y="99.08" width="9.06" height="9.06"/>
  <rect class="cls-3" x="43.56" y="92" width="8.78" height="4.68"/>
  <rect class="cls-3" x="50.59" y="86.05" width="4.68" height="4.68"/>
  <rect x="63.03" y="63.24" width="9.06" height="9.06"/>
  <rect x="51.9" y="79.09" width="31.33" height="9.06" transform="translate(-16.06 151.19) rotate(-90)"/>
  <rect x="34.02" y="54.18" width="29.08" height="9.06"/>
  <rect x="31.73" y="99.08" width="31.36" height="9.06"/>
  <g>
    <path class="cls-1" d="M135.35,81.4c-10.58,0-15.5-4.09-15.5-12.85v-19.59c0-8.82,4.91-12.91,15.5-12.91h15.37c1.57,0,2.27.69,2.27,2.27v7.62c0,1.57-.69,2.27-2.27,2.27h-12.66c-2.65,0-3.84,1.01-3.84,3.15v14.99c0,2.08,1.2,3.02,3.84,3.02h12.66c1.57,0,2.27.69,2.27,2.27v7.5c0,1.57-.69,2.27-2.27,2.27h-15.37Z"/>
    <path class="cls-1" d="M162.37,81.4c-1.57,0-2.27-.69-2.27-2.27v-40.82c0-1.57.69-2.27,2.27-2.27h9.76c1.57,0,2.27.69,2.27,2.27v13.67h10.52v-13.67c0-1.57.69-2.27,2.27-2.27h9.76c1.57,0,2.27.69,2.27,2.27v40.82c0,1.57-.69,2.27-2.27,2.27h-9.76c-1.57,0-2.27-.69-2.27-2.27v-13.98h-10.52v13.98c0,1.57-.69,2.27-2.27,2.27h-9.76Z"/>
    <path class="cls-1" d="M210.18,81.4c-1.57,0-2.27-.69-2.27-2.27v-40.82c0-1.57.69-2.27,2.27-2.27h29.23c1.57,0,2.27.69,2.27,2.27v7.37c0,1.57-.69,2.27-2.27,2.27h-17.39v4.85h12.28c1.57,0,2.27.69,2.27,2.27v6.74c0,1.57-.69,2.27-2.27,2.27h-12.28v5.42h17.39c1.57,0,2.27.69,2.27,2.27v7.37c0,1.57-.69,2.27-2.27,2.27h-29.23Z"/>
    <path class="cls-1" d="M251.38,81.4c-1.57,0-2.27-.69-2.27-2.27v-40.82c0-1.57.69-2.27,2.27-2.27h20.98c9.45,0,12.41,4.28,12.41,10.52v2.9c0,3.53-.88,6.05-3.53,7.18,4.6.5,7.62,3.84,7.62,9.13v13.35c0,1.57-.69,2.27-2.27,2.27h-9.76c-1.57,0-2.27-.69-2.27-2.27v-9.64c0-1.89-.63-2.71-2.39-2.71h-8.82v12.35c0,1.57-.69,2.27-2.27,2.27h-9.7ZM263.35,55.45h4.72c2.2,0,2.77-1.26,2.77-2.96v-2.14c0-1.7-.57-2.96-2.77-2.96h-4.72v8.06Z"/>
    <path class="cls-1" d="M298.19,81.4c-1.57,0-2.27-.69-2.27-2.27v-40.82c0-1.57.69-2.27,2.27-2.27h20.98c9.45,0,12.41,4.28,12.41,10.52v2.9c0,3.53-.88,6.05-3.53,7.18,4.6.5,7.62,3.84,7.62,9.13v13.35c0,1.57-.69,2.27-2.27,2.27h-9.76c-1.57,0-2.27-.69-2.27-2.27v-9.64c0-1.89-.63-2.71-2.39-2.71h-8.82v12.35c0,1.57-.69,2.27-2.27,2.27h-9.7ZM310.15,55.45h4.72c2.2,0,2.77-1.26,2.77-2.96v-2.14c0-1.7-.57-2.96-2.77-2.96h-4.72v8.06Z"/>
    <path class="cls-1" d="M341.71,79.13v-7.5c0-1.57.69-2.27,2.27-2.27h6.24v-21.17h-6.24c-1.57,0-2.27-.69-2.27-2.27v-7.62c0-1.57.69-2.27,2.27-2.27h26.83c1.57,0,2.27.69,2.27,2.27v7.62c0,1.57-.69,2.27-2.27,2.27h-6.11v21.17h6.11c1.57,0,2.27.69,2.27,2.27v7.5c0,1.57-.69,2.27-2.27,2.27h-26.83c-1.57,0-2.27-.69-2.27-2.27Z"/>
    <path class="cls-1" d="M383.1,81.4c-1.57,0-2.27-.69-2.27-2.27v-40.82c0-1.57.69-2.27,2.27-2.27h29.23c1.57,0,2.27.69,2.27,2.27v7.37c0,1.57-.69,2.27-2.27,2.27h-17.39v4.85h12.28c1.57,0,2.27.69,2.27,2.27v6.74c0,1.57-.69,2.27-2.27,2.27h-12.28v5.42h17.39c1.57,0,2.27.69,2.27,2.27v7.37c0,1.57-.69,2.27-2.27,2.27h-29.23Z"/>
    <path class="cls-1" d="M423.16,81.4c-1.57,0-2.27-.69-2.27-2.27v-7.37c0-1.57.69-2.27,2.27-2.27h16.94c1.07,0,1.64-.82,1.64-1.83,0-1.45-.57-2.02-1.64-2.14l-9.45-1.32c-5.92-.88-9.76-3.4-9.76-10.46v-6.61c0-7.18,4.85-11.09,13.04-11.09h17.64c1.57,0,2.27.69,2.27,2.27v7.5c0,1.57-.69,2.27-2.27,2.27h-14.68c-1.07,0-1.7.76-1.7,1.89s.63,1.89,1.7,2.02l9.39,1.26c5.92.88,9.83,3.4,9.83,10.46v6.61c0,7.18-4.91,11.09-13.04,11.09h-19.9Z"/>
  </g>
  <path class="cls-1" d="M478.19,41.14c0,4.35-3.41,7.76-7.85,7.76s-7.9-3.41-7.9-7.76,3.51-7.67,7.9-7.67,7.85,3.41,7.85,7.67ZM464.4,41.14c0,3.41,2.52,6.12,5.98,6.12s5.84-2.71,5.84-6.08-2.48-6.17-5.89-6.17-5.94,2.76-5.94,6.12ZM469.12,45.16h-1.78v-7.67c.7-.14,1.68-.23,2.94-.23,1.45,0,2.1.23,2.66.56.42.33.75.94.75,1.68,0,.84-.65,1.5-1.59,1.78v.09c.75.28,1.17.84,1.4,1.87.23,1.17.37,1.64.56,1.92h-1.92c-.23-.28-.37-.98-.61-1.87-.14-.84-.61-1.22-1.59-1.22h-.84v3.09ZM469.17,40.81h.84c.98,0,1.78-.33,1.78-1.12,0-.7-.51-1.17-1.64-1.17-.47,0-.79.05-.98.09v2.2Z"/>
</svg>